<svg xmlns="http://www.w3.org/2000/svg" viewBox="0 0 800 600" fill="none">
    <!-- Background -->
    <rect width="800" height="600" fill="#F8FAFC"/>
    
    <!-- Medical Document -->
    <rect x="100" y="100" width="250" height="350" rx="10" fill="white" stroke="#E2E8F0" stroke-width="2"/>
    <line x1="130" y1="150" x2="320" y2="150" stroke="#CBD5E1" stroke-width="2"/>
    <line x1="130" y1="190" x2="320" y2="190" stroke="#CBD5E1" stroke-width="2"/>
    <line x1="130" y1="230" x2="320" y2="230" stroke="#CBD5E1" stroke-width="2"/>
    <line x1="130" y1="270" x2="250" y2="270" stroke="#CBD5E1" stroke-width="2"/>
    
    <!-- AI Analysis Visualization -->
    <circle cx="500" cy="200" r="120" fill="#EFF6FF" stroke="#3B82F6" stroke-width="2"/>
    <path d="M440 200 L560 200 M500 140 L500 260" stroke="#3B82F6" stroke-width="2"/>
    <circle cx="500" cy="200" r="40" fill="#DBEAFE"/>
    
    <!-- Connection Lines -->
    <path d="M350 250 Q 425 250, 425 200 L425 200" stroke="#3B82F6" stroke-width="2" stroke-dasharray="4"/>
    
    <!-- Results Card -->
    <rect x="450" y="350" width="250" height="150" rx="10" fill="white" stroke="#3B82F6" stroke-width="2"/>
    <line x1="470" y1="380" x2="680" y2="380" stroke="#DBEAFE" stroke-width="2"/>
    <line x1="470" y1="420" x2="680" y2="420" stroke="#DBEAFE" stroke-width="2"/>
    <line x1="470" y1="460" x2="600" y2="460" stroke="#DBEAFE" stroke-width="2"/>
    
    <!-- Icons -->
    <circle cx="150" cy="130" r="10" fill="#3B82F6"/>
    <circle cx="470" cy="200" r="5" fill="#3B82F6"/>
    <circle cx="530" cy="200" r="5" fill="#3B82F6"/>
    <circle cx="500" cy="170" r="5" fill="#3B82F6"/>
    <circle cx="500" cy="230" r="5" fill="#3B82F6"/>
</svg> 